# xmcd
#
# Track frame offsets:
#	150
#	13871
#	26649
#	40358
#	53443
#	66685
#	80715
#	93749
#	108026
#	121518
#	134518
#	146933
#	161423
#	174980
#	187478
#	200337
#	214232
#	229566
#	244407
#	258673
#	270576
#	285431
#
# Disc length: 3970 seconds
#
# Revision: 5
# Processed by: cddbd v1.5.2PL0 Copyright (c) Steve Scherf et al.
# Submitted via: EasyCDDAExtractor 11.1.0.1
#
DISCID=4c0f8016
DTITLE=Blind Willie McTell - The Classic Years (1933-1935)
DYEAR=2003
DGENRE=Blues
TTITLE0=B And O Blues No 2 (1933)
TTITLE1=B And O Blues No 2 (1933)
TTITLE2=Weary Hearted Blues (1933)
TTITLE3=Bell Street Lightnin' (1933)
TTITLE4=Southern Can Mama (1933)
TTITLE5=Runnin' Me Crazy (1933)
TTITLE6=East St Louis Blues (Fare You Well) (1933)
TTITLE7=Ain't It Grand To Be A Christian (1935)
TTITLE8=We Got To Meet Death One Day (1935)
TTITLE9=We Got To Meet Death One Day (1935)
TTITLE10=Don't Let Nobody Turn You Around (1935)
TTITLE11=I Got Religion, I'm So Glad (1935)
TTITLE12=Dying Gambler (1935)
TTITLE13=God Don't Like It (1935)
TTITLE14=Bell Street Blues (1935)
TTITLE15=Let Me Play With Yo' Yo-Yo (1935)
TTITLE16=Lay Some Flowers On My Grave (1935)
TTITLE17=Ticket Agent Blues (1935)
TTITLE18=Cold Winter Day (1935)
TTITLE19=Your Time To Worry (1935)
TTITLE20=Cooling Board Blues (1935)
TTITLE21=Hillbilly Willie's Blues (1935)
EXTD=YEAR: 2003
EXTT0=
EXTT1=
EXTT2=
EXTT3=
EXTT4=
EXTT5=
EXTT6=
EXTT7=
EXTT8=
EXTT9=
EXTT10=
EXTT11=
EXTT12=
EXTT13=
EXTT14=
EXTT15=
EXTT16=
EXTT17=
EXTT18=
EXTT19=
EXTT20=
EXTT21=
PLAYORDER=
